<?xml version="1.0" encoding="UTF-8" standalone="no"?>
<svg
   version="1.1"
   height="229"
   width="354"
   id="svg3"
   xmlns:xlink="http://www.w3.org/1999/xlink"
   xmlns="http://www.w3.org/2000/svg"
   xmlns:svg="http://www.w3.org/2000/svg"
   xmlns:set="https://github.com/hildjj/set-game">
  <metadata
     id="metadata1">
    <set:num>3</set:num>
    <set:fill>Solid</set:fill>
    <set:color>red</set:color>
    <set:shape>Squiggle</set:shape>
  </metadata>
  <defs
     id="defs1">
    <path
       class="setcolor setline"
       id="shape"
       d="m 33,180 c 6,-13 11,-23 26,-28 15,-5 31,-1 58,7 23,7 36,0 43,-3 7,-4 17,-9 30,-9 13,0 18,21 12,33 -5,11 -14,23 -26,28 -12,5 -32,1 -59,-7 -17,-5 -29,-3 -42,3 -9,4 -18,10 -30,9 -13,0 -19,-18 -12,-33 z" />
    <style
       type="text/css"
       id="style1">
      .setcolor {
        stroke: red;
        fill: red;
      }
      .setline {
        stroke-width: 4;
        stroke-linejoin: round;
      }
    </style>
  </defs>
  <rect
     x="-227"
     y="2"
     height="350"
     width="225"
     rx="10"
     ry="10"
     fill="#ffffff"
     stroke="#000000"
     stroke-width="4"
     id="rect1"
     transform="rotate(-90)" />
  <use
     y="-100"
     xlink:href="#shape"
     id="use1"
     transform="rotate(-90,114.5,117.5)" />
  <use
     xlink:href="#shape"
     id="use2"
     transform="rotate(-90,114.5,117.5)" />
  <use
     y="100"
     xlink:href="#shape"
     id="use3"
     transform="rotate(-90,114.5,117.5)" />
</svg>
